<mxfile host="app.diagrams.net" modified="2020-12-08T08:39:36.895Z" agent="5.0 (Windows NT 10.0; Win64; x64) AppleWebKit/537.36 (KHTML, like Gecko) Chrome/86.0.4240.185 YaBrowser/20.11.2.78 Yowser/2.5 Safari/537.36" etag="Fv1jKBZgzLzRVUzVQkS4" version="13.10.9" type="github">
  <diagram id="rS_vg9HG25UWNW0jvx1h" name="Page-1">
    <mxGraphModel dx="1038" dy="552" grid="1" gridSize="10" guides="1" tooltips="1" connect="1" arrows="1" fold="1" page="1" pageScale="1" pageWidth="827" pageHeight="1169" math="0" shadow="0">
      <root>
        <mxCell id="0" />
        <mxCell id="1" parent="0" />
        <mxCell id="tuaaS6XYVztnJpJqFH6w-3" style="edgeStyle=orthogonalEdgeStyle;rounded=0;orthogonalLoop=1;jettySize=auto;html=1;" edge="1" parent="1" source="tuaaS6XYVztnJpJqFH6w-1" target="tuaaS6XYVztnJpJqFH6w-2">
          <mxGeometry relative="1" as="geometry" />
        </mxCell>
        <mxCell id="tuaaS6XYVztnJpJqFH6w-1" value="Начало" style="ellipse;whiteSpace=wrap;html=1;" vertex="1" parent="1">
          <mxGeometry x="360" y="20" width="120" height="40" as="geometry" />
        </mxCell>
        <mxCell id="tuaaS6XYVztnJpJqFH6w-5" style="edgeStyle=orthogonalEdgeStyle;rounded=0;orthogonalLoop=1;jettySize=auto;html=1;" edge="1" parent="1" source="tuaaS6XYVztnJpJqFH6w-2" target="tuaaS6XYVztnJpJqFH6w-6">
          <mxGeometry relative="1" as="geometry">
            <mxPoint x="520" y="150" as="targetPoint" />
          </mxGeometry>
        </mxCell>
        <mxCell id="tuaaS6XYVztnJpJqFH6w-2" value="5 &amp;amp; 6" style="whiteSpace=wrap;html=1;aspect=fixed;" vertex="1" parent="1">
          <mxGeometry x="380" y="110" width="80" height="80" as="geometry" />
        </mxCell>
        <mxCell id="tuaaS6XYVztnJpJqFH6w-6" value="вывод&lt;br&gt;5 &amp;amp; 6" style="shape=parallelogram;perimeter=parallelogramPerimeter;whiteSpace=wrap;html=1;fixedSize=1;" vertex="1" parent="1">
          <mxGeometry x="520" y="120" width="120" height="60" as="geometry" />
        </mxCell>
        <mxCell id="tuaaS6XYVztnJpJqFH6w-8" value="5 | 6" style="whiteSpace=wrap;html=1;aspect=fixed;" vertex="1" parent="1">
          <mxGeometry x="380" y="230" width="80" height="80" as="geometry" />
        </mxCell>
        <mxCell id="tuaaS6XYVztnJpJqFH6w-9" value="вывод&lt;br&gt;5 | 6" style="shape=parallelogram;perimeter=parallelogramPerimeter;whiteSpace=wrap;html=1;fixedSize=1;" vertex="1" parent="1">
          <mxGeometry x="520" y="240" width="120" height="60" as="geometry" />
        </mxCell>
        <mxCell id="tuaaS6XYVztnJpJqFH6w-10" value="5 ^ 6" style="whiteSpace=wrap;html=1;aspect=fixed;" vertex="1" parent="1">
          <mxGeometry x="380" y="350" width="80" height="80" as="geometry" />
        </mxCell>
        <mxCell id="tuaaS6XYVztnJpJqFH6w-11" value="вывод&lt;br&gt;5 ^ 6" style="shape=parallelogram;perimeter=parallelogramPerimeter;whiteSpace=wrap;html=1;fixedSize=1;" vertex="1" parent="1">
          <mxGeometry x="520" y="360" width="120" height="60" as="geometry" />
        </mxCell>
      </root>
    </mxGraphModel>
  </diagram>
</mxfile>
